<svg width="45" height="46" viewBox="0 0 45 46" fill="none" xmlns="http://www.w3.org/2000/svg">
<path d="M17.5118 0C15.9032 0 14.3527 0.207289 12.8602 0.621868C11.3677 1.03645 9.97476 1.62515 8.68127 2.38797C7.38779 3.1508 6.21038 4.06287 5.14906 5.12419C4.08774 6.18551 3.16738 7.3712 2.38797 8.68127C1.60857 9.99134 1.01986 11.3843 0.621868 12.8602C0.223873 14.3361 0.0165825 15.8866 0 17.5118C0 19.1204 0.207291 20.6709 0.621868 22.1634C1.03645 23.6558 1.62515 25.0488 2.38797 26.3423C3.15079 27.6358 4.06287 28.8132 5.12419 29.8745C6.18551 30.9358 7.3712 31.8562 8.68127 32.6356C9.99134 33.415 11.3843 34.0037 12.8602 34.4017C14.3361 34.7997 15.8866 35.007 17.5118 35.0236C19.5847 35.0236 21.5664 34.6753 23.4568 33.9788C25.3473 33.2824 27.0968 32.2791 28.7054 30.969L42.2887 45.2703C42.6037 45.5854 42.9769 45.7429 43.408 45.7429C43.8392 45.7429 44.2123 45.5854 44.5274 45.2703C44.8425 44.9552 45 44.5821 45 44.1509C45 43.7198 44.8425 43.3467 44.5274 43.0316L30.969 28.7054C32.2791 27.1134 33.2824 25.3722 33.9788 23.4817C34.6753 21.5912 35.0236 19.6013 35.0236 17.5118C35.0236 15.9032 34.8163 14.3527 34.4017 12.8602C33.9871 11.3677 33.3984 9.97476 32.6356 8.68127C31.8728 7.38779 30.9607 6.21038 29.8994 5.14906C28.8381 4.08774 27.6524 3.16738 26.3423 2.38797C25.0322 1.60856 23.6393 1.01986 22.1634 0.621868C20.6875 0.223872 19.1369 0.0165831 17.5118 0ZM17.5118 31.8396C15.5384 31.8396 13.6811 31.4665 11.9399 30.7203C10.1986 29.974 8.68127 28.9459 7.38779 27.6358C6.0943 26.3257 5.07444 24.8084 4.3282 23.0837C3.58196 21.3591 3.20055 19.5018 3.18396 17.5118C3.18396 15.5384 3.55708 13.6811 4.30333 11.9399C5.04956 10.1986 6.07772 8.68127 7.38779 7.38779C8.69786 6.0943 10.2152 5.07444 11.9399 4.3282C13.6645 3.58196 15.5218 3.20055 17.5118 3.18396C19.4852 3.18396 21.3425 3.55708 23.0837 4.30332C24.825 5.04957 26.3423 6.07772 27.6358 7.38779C28.9293 8.69785 29.9491 10.2152 30.6954 11.9399C31.4416 13.6645 31.823 15.5218 31.8396 17.5118C31.8396 19.4852 31.4665 21.3425 30.7203 23.0837C29.974 24.825 28.9459 26.3423 27.6358 27.6358C26.3257 28.9293 24.8084 29.9491 23.0837 30.6954C21.3591 31.4416 19.5018 31.823 17.5118 31.8396Z" fill="#3FCDAA"/>
</svg>
